<?xml version="1.0" encoding="UTF-8"?><svg id="Layer_2" xmlns="http://www.w3.org/2000/svg" viewBox="0 0 1018.86 142.6"><defs><style>.cls-1{fill:#e41f13;}.cls-1,.cls-2,.cls-3,.cls-4{stroke-width:0px;}.cls-2{fill:#464a51;}.cls-3{fill:#e30613;}.cls-4{fill:#848282;}</style></defs><g id="Layer_1-2"><rect class="cls-2" x="678.05" y="14.82" width="5.21" height="117.29"/><path class="cls-2" d="M709.08,14.92h17.34l12.5,36.24,12.34-36.24h16.33v50.69h-11.01V28.12h-.23l-12.81,37.49h-9.76l-13.2-37.49h-.31v37.49h-11.17V14.92Z"/><path class="cls-2" d="M789.76,14.92h14.84l18.28,50.69h-12.34l-4.53-13.36h-18.51l-4.45,13.36h-12.03l18.74-50.69ZM803.35,44.13l-6.4-19.06h-.31l-6.41,19.06h13.12ZM800.08,0h12.42l-9.76,9.92h-9.69l7.03-9.92Z"/><path class="cls-2" d="M826.32,14.92h12.19v42.02h24.92v8.67h-37.1V14.92Z"/><path class="cls-2" d="M882.87,14.92h14.84l18.28,50.69h-12.34l-4.53-13.36h-18.51l-4.45,13.36h-12.03l18.74-50.69ZM896.46,44.13l-6.41-19.06h-.31l-6.4,19.06h13.12Z"/><path class="cls-2" d="M935.83,66c-2.24-.26-4.45-.7-6.64-1.33-2.34-.63-4.27-1.47-5.78-2.54-1.51-1.06-2.73-2.46-3.67-4.18-.94-1.82-1.41-3.9-1.41-6.25v-21.09c0-2.55.52-4.85,1.56-6.91,1.04-2.06,2.45-3.68,4.22-4.88,1.67-1.09,3.66-2.03,5.98-2.81,2.31-.78,4.59-1.3,6.83-1.56,1.87-.21,4.14-.31,6.8-.31,7.19,0,14.06.55,20.62,1.64v9.22c-6.04-1.46-12.91-2.19-20.62-2.19-8.8,0-13.2,2.55-13.2,7.65v20.39c0,2.5,1.18,4.27,3.55,5.31,2.37,1.04,5.95,1.56,10.74,1.56,2.55,0,5.28-.39,8.2-1.17v-11.79h-8.28v-7.97h19.92v26.32c-2.61.94-5.92,1.72-9.96,2.34-4.04.62-7.75.94-11.13.94-2.92,0-5.49-.13-7.73-.39Z"/><path class="cls-2" d="M985.74,14.92h14.84l18.28,50.69h-12.34l-4.53-13.36h-18.51l-4.45,13.36h-12.03l18.74-50.69ZM999.33,44.13l-6.4-19.06h-.31l-6.41,19.06h13.12Z"/><path class="cls-4" d="M724.81,132.59c-1.83-.21-3.84-.61-6.02-1.2-2.44-.64-4.46-1.47-6.06-2.51-1.59-1.04-2.92-2.48-3.99-4.35-1.12-1.86-1.67-4.06-1.67-6.62v-22.72c0-10.41,8-15.62,23.99-15.62,4.09,0,9.57.59,16.42,1.75v9.33c-6.16-1.49-11.59-2.23-16.26-2.23-1.97,0-3.5.06-4.58.16-1.09.11-2.22.37-3.39.8-2.5.85-3.74,2.74-3.74,5.66v22c0,4.68,4.28,7.01,12.83,7.01,3.67,0,8.82-.77,15.46-2.31v9.41c-5.69,1.17-11.27,1.75-16.74,1.75-2.34,0-4.42-.11-6.26-.32Z"/><path class="cls-4" d="M758.25,80.38h39.46v8.85h-27.02v11.88h24.39v8.85h-24.39v13.31h27.82v8.85h-40.25v-51.73Z"/><path class="cls-4" d="M809.34,80.38h12.59l25.03,35.31v-35.31h11.08v51.73h-12.59l-25.03-35.87v35.87h-11.08v-51.73Z"/><path class="cls-4" d="M883.63,89.22h-15.94v-8.85h44.24v8.85h-15.86v42.89h-12.44v-42.89Z"/><path class="cls-4" d="M921.58,80.38h39.46v8.85h-27.02v11.88h24.39v8.85h-24.39v13.31h27.82v8.85h-40.25v-51.73Z"/><path class="cls-4" d="M972.67,80.38h23.28c6.91,0,11.9.84,14.99,2.51,3.08,1.67,4.62,4.48,4.62,8.41v9.09c0,3.03-1.08,5.41-3.23,7.13-2.15,1.73-5.01,2.83-8.57,3.31l14.99,21.28h-14.35l-13.55-20.33h-5.74v20.33h-12.44v-51.73ZM995.78,103.57c2.92,0,4.91-.38,5.98-1.15,1.06-.77,1.6-2.27,1.6-4.5v-3.67c0-1.91-.57-3.23-1.71-3.94-1.14-.72-3.1-1.08-5.86-1.08h-10.68v14.35h10.68Z"/><polygon class="cls-1" points="497.54 14.82 497.54 132.16 521.57 132.16 521.57 82.94 542.39 82.94 542.39 132.16 566.3 132.16 566.3 14.82 542.41 14.82 542.41 61.57 521.56 61.57 521.56 14.82 497.54 14.82"/><polygon class="cls-1" points="312.21 14.82 312.21 132.16 334.21 132.16 334.21 57.56 347.14 132.16 361.77 132.16 374.91 57.56 374.91 132.16 396.99 132.16 396.99 14.82 364.26 14.82 354.6 71.24 344.93 14.82 312.21 14.82"/><polygon class="cls-1" points="174.04 14.82 188.68 67.25 203.31 14.82 227.2 14.82 201.44 93.65 201.44 132.16 175.92 132.16 175.92 93.65 150.15 14.82 174.04 14.82"/><path class="cls-1" d="M277.95,14.82h-31.8l-20.88,117.34h23.75l4-27.93h17.95l4,27.93h23.89l-20.92-117.34ZM262,41.34l5.93,41.59h-11.87l5.94-41.59Z"/><path class="cls-1" d="M463.13,14.82h-31.8l-20.88,117.34h23.75l4-27.93h17.95l4,27.93h23.89l-20.92-117.34ZM447.18,41.34l5.94,41.59h-11.88l5.94-41.59Z"/><path class="cls-1" d="M632.58,14.82h-31.8l-20.89,117.34h23.76l4-27.93h17.96l4,27.93h23.89l-20.92-117.34ZM616.63,41.34l5.93,41.59h-11.87l5.93-41.59Z"/><path class="cls-3" d="M69.27,4.06C31.01,4.06,0,35.07,0,73.33s31.01,69.27,69.27,69.27,69.27-31.01,69.27-69.27S107.52,4.06,69.27,4.06ZM126.28,102.62c.97,1.06,1.15,2.62.42,3.87-.72,1.25-2.15,1.88-3.56,1.57l-6.02-1.33c-10.55,15.09-28.05,24.96-47.85,24.96s-37.3-9.87-47.85-24.96l-6.02,1.34c-1.41.31-2.84-.32-3.56-1.57-.72-1.25-.55-2.8.42-3.87l4.16-4.54c-3.53-7.52-5.5-15.9-5.5-24.76,0-30.55,23.47-55.61,53.37-58.14l1.85-5.88c.43-1.38,1.69-2.3,3.14-2.3s2.7.92,3.14,2.3l1.85,5.88c29.89,2.53,53.37,27.59,53.37,58.14,0,8.85-1.98,17.24-5.5,24.76l4.16,4.54Z"/><path class="cls-3" d="M109.34,91.43c-1.32.23-2.72.02-3.97-.7-1.4-.81-2.34-2.1-2.73-3.54l-1.12-4.08h0c-.72-2.63-2.44-4.98-4.98-6.45l-5.79-3.34,25.65-14.81-3.29-5.7-28.94,16.71-4.16-2.4v-4.8l28.94-16.71-3.29-5.7-25.65,14.81v-6.69c0-2.94-1.18-5.6-3.09-7.54l-2.97-3.01c-1.05-1.06-1.7-2.52-1.7-4.13,0-1.44.52-2.76,1.38-3.78l1.78-2.12-5.48-17.37c-.09-.29-.36-.48-.66-.48s-.57.2-.66.48l-5.48,17.37,1.78,2.12c.86,1.02,1.38,2.34,1.38,3.78,0,1.61-.65,3.07-1.7,4.13l-2.97,3.01c-1.91,1.94-3.09,4.6-3.09,7.54v6.69l-25.65-14.81-3.29,5.7,28.94,16.71v4.8l-4.16,2.4-28.94-16.71-3.29,5.7,25.65,14.81-5.79,3.34c-2.54,1.47-4.26,3.82-4.98,6.45l-1.12,4.08c-.4,1.44-1.34,2.73-2.73,3.54-1.25.72-2.65.93-3.97.7l-2.73-.48-12.31,13.43c-.2.22-.24.55-.09.81.15.26.45.4.75.33l17.78-3.94.95-2.6c.46-1.26,1.34-2.37,2.59-3.09,1.4-.81,2.98-.98,4.43-.6l4.09,1.07c2.63.69,5.53.38,8.07-1.09l5.79-3.34v29.61h6.58v-33.41l4.16-2.4,4.16,2.4v33.41h6.58v-29.61l5.79,3.34c2.54,1.47,5.44,1.78,8.07,1.09l4.09-1.07h0c1.45-.38,3.03-.21,4.43.6,1.25.72,2.13,1.83,2.59,3.09l.95,2.6,17.78,3.94c.3.07.6-.07.75-.33.15-.26.12-.59-.09-.81l-12.31-13.43-2.73.48ZM58.53,84.33l-9.08,5.24c-1.99,1.15-4.53.47-5.68-1.52-1.15-1.99-.47-4.53,1.52-5.68l9.08-5.24,4.16,2.4v4.8ZM73.42,75.73l-4.16,2.4-4.16-2.4v-4.8l4.16-2.4,4.16,2.4v4.8ZM73.42,58.53l-4.16,2.4-4.16-2.4v-10.49c0-2.3,1.86-4.16,4.16-4.16s4.16,1.86,4.16,4.16v10.49ZM94.76,88.05c-1.15,1.99-3.69,2.67-5.68,1.52l-9.08-5.24v-4.8l4.16-2.4,9.08,5.24c1.99,1.15,2.67,3.69,1.52,5.68Z"/></g></svg>