<?xml version="1.0" encoding="UTF-8"?><svg id="Layer_2" xmlns="http://www.w3.org/2000/svg" viewBox="0 0 415.76 415.76"><defs><style>.cls-1{fill:#e30613;stroke-width:0px;}</style></defs><g id="Layer_1-2"><path class="cls-1" d="M207.88,0C93.07,0,0,93.07,0,207.88s93.07,207.88,207.88,207.88,207.88-93.07,207.88-207.88S322.69,0,207.88,0ZM378.98,295.79c2.93,3.19,3.44,7.86,1.27,11.61-2.16,3.75-6.46,5.64-10.69,4.7l-18.07-4.01c-31.66,45.28-84.17,74.92-143.62,74.92s-111.96-29.63-143.62-74.92l-18.07,4.01c-4.23.94-8.52-.95-10.69-4.7-2.17-3.75-1.65-8.42,1.27-11.61l12.48-13.62c-10.58-22.56-16.51-47.73-16.51-74.29,0-91.68,70.45-166.89,160.16-174.49l5.56-17.65c1.3-4.13,5.09-6.9,9.42-6.9s8.12,2.77,9.42,6.9l5.56,17.65c89.71,7.6,160.16,82.82,160.16,174.49,0,26.56-5.93,51.74-16.51,74.29l12.48,13.62Z"/><path class="cls-1" d="M328.13,262.2c-3.95.7-8.16.07-11.9-2.09-4.19-2.42-7.01-6.29-8.2-10.61l-3.37-12.24h0c-2.17-7.88-7.32-14.94-14.95-19.35l-17.38-10.03,76.97-44.44-9.87-17.1-86.84,50.14-12.47-7.2v-14.4l86.84-50.14-9.87-17.1-76.97,44.44v-20.07c0-8.82-3.54-16.81-9.28-22.62l-8.91-9.04c-3.15-3.19-5.09-7.57-5.09-12.41,0-4.32,1.56-8.28,4.14-11.35l5.34-6.36-16.44-52.13c-.27-.87-1.07-1.45-1.98-1.45s-1.71.59-1.98,1.45l-16.44,52.13,5.34,6.36c2.58,3.07,4.14,7.03,4.14,11.35,0,4.84-1.94,9.22-5.09,12.41l-8.91,9.04c-5.74,5.82-9.28,13.81-9.28,22.62v20.07l-76.97-44.44-9.87,17.1,86.84,50.14v14.4l-12.47,7.2-86.84-50.14-9.87,17.1,76.97,44.44-17.38,10.03c-7.64,4.41-12.78,11.47-14.95,19.35l-3.37,12.24c-1.19,4.32-4.01,8.19-8.2,10.61-3.75,2.16-7.95,2.79-11.9,2.09l-8.18-1.45-36.93,40.3c-.61.67-.72,1.66-.27,2.44.45.79,1.36,1.19,2.25.99l53.37-11.83,2.84-7.81c1.37-3.77,4.02-7.1,7.76-9.26,4.19-2.42,8.95-2.93,13.29-1.8l12.28,3.2c7.91,2.06,16.6,1.13,24.23-3.28l17.38-10.03v88.88h19.75v-100.28l12.47-7.2,12.47,7.2v100.28h19.75v-88.87l17.38,10.03c7.64,4.41,16.33,5.34,24.23,3.28l12.28-3.2h0c4.34-1.13,9.1-.62,13.29,1.8,3.75,2.16,6.39,5.49,7.76,9.26l2.84,7.81,53.37,11.83c.89.2,1.8-.2,2.25-.99.45-.79.35-1.77-.27-2.44l-36.93-40.3-8.18,1.45ZM175.66,240.88l-27.25,15.73c-5.97,3.44-13.59,1.4-17.04-4.57-3.44-5.97-1.4-13.59,4.57-17.04l27.25-15.73,12.47,7.2v14.4ZM220.35,215.08l-12.47,7.2-12.47-7.2v-14.4l12.47-7.2,12.47,7.2v14.4ZM220.35,163.47l-12.47,7.2-12.47-7.2v-31.47c0-6.89,5.58-12.47,12.47-12.47s12.47,5.58,12.47,12.47v31.47ZM284.39,252.05c-3.44,5.97-11.07,8.01-17.04,4.57l-27.25-15.73v-14.4l12.47-7.2,27.25,15.73c5.97,3.44,8.01,11.07,4.57,17.04Z"/></g></svg>